# xmcd CD database file
#
# Track frame offsets:
#	150
#	14024
#	28123
#	42222
#	51879
#	67390
#	81534
#	95222
#	108974
#	121380
#	135194
#	147709
#	160736
#	176369
#	188902
#	202408
#	217731
#	230355
#
# Disc length: 3215 seconds
#
# Revision: 0
# Processed by: cddbd v1.5PL3 Copyright (c) Steve Scherf et al.
# Submitted via: CDex 1.50
#
DISCID=0f0c8d12
DTITLE=Benny Carter - When Lights Are Low
DYEAR=2003
DGENRE=Jazz
TTITLE0=Cocktails For Two
TTITLE1=Bablou
TTITLE2=Devil's Holiday
TTITLE3=When Lights Are Low
TTITLE4=Blue Interlude
TTITLE5=My Favourite Blues
TTITLE6=Melancholy Lullaby
TTITLE7=Big Ben Blues
TTITLE8=Cruisin'
TTITLE9=Everybody Shuffle
TTITLE10=I'm In the Mood For Swing
TTITLE11=Georgia On My Mind
TTITLE12=Krazy Kapers
TTITLE13=Cuddle Up, Huddle Up
TTITLE14=I've Got Two Lips
TTITLE15=All Of Me
TTITLE16=Swingin' at Maidavale
TTITLE17=You Belong To Me
EXTD=YEAR: 2003
EXTT0=
EXTT1=
EXTT2=
EXTT3=
EXTT4=
EXTT5=
EXTT6=
EXTT7=
EXTT8=
EXTT9=
EXTT10=
EXTT11=
EXTT12=
EXTT13=
EXTT14=
EXTT15=
EXTT16=
EXTT17=
PLAYORDER=
